<?xml version="1.0" standalone="no"?>
<!DOCTYPE svg PUBLIC "-//W3C//DTD SVG 20010904//EN"
 "http://www.w3.org/TR/2001/REC-SVG-20010904/DTD/svg10.dtd">
<svg version="1.0" xmlns="http://www.w3.org/2000/svg"
 width="300.000000pt" height="388.000000pt" viewBox="0 0 300.000000 388.000000"
 preserveAspectRatio="xMidYMid meet">
<metadata>
Created by potrace 1.10, written by Peter Selinger 2001-2011
</metadata>
<g transform="translate(0.000000,388.000000) scale(0.100000,-0.100000)"
fill="#ffffff" stroke="none">
<path d="M1242 3458 c-17 -17 -17 -359 0 -376 17 -17 509 -17 526 0 17 17 17
359 0 376 -17 17 -509 17 -526 0z m476 -60 c3 -17 -12 -18 -211 -18 -117 0
-217 3 -220 7 -4 3 -2 12 5 20 9 11 51 13 217 11 187 -3 206 -5 209 -20z m0
-80 c3 -17 -12 -18 -211 -18 -117 0 -217 3 -220 7 -4 3 -2 12 4 20 9 11 54 13
218 11 187 -3 206 -5 209 -20z m-20 -68 c35 -32 33 -74 -4 -107 -31 -28 -54
-29 -88 -2 -52 41 -22 129 44 129 14 0 36 -9 48 -20z m-163 -20 c0 -12 -21
-16 -119 -18 -115 -3 -146 4 -131 27 4 8 47 11 128 9 101 -3 122 -6 122 -18z
m4 -69 c12 -8 12 -12 2 -25 -11 -13 -35 -16 -120 -16 -111 0 -138 7 -128 34 5
13 25 16 119 16 62 0 119 -4 127 -9z"/>
<path d="M1643 3243 c4 -3 10 -3 14 0 3 4 0 7 -7 7 -7 0 -10 -3 -7 -7z"/>
<path d="M1640 3215 c0 -8 5 -15 10 -15 6 0 10 7 10 15 0 8 -4 15 -10 15 -5 0
-10 -7 -10 -15z"/>
<path d="M1600 3172 c0 -16 25 -32 51 -32 27 0 57 25 45 38 -4 4 -12 -1 -17
-11 -12 -21 -48 -22 -55 -2 -6 16 -24 21 -24 7z"/>
<path d="M957 2943 c-13 -12 -8 -278 5 -291 9 -9 77 -12 245 -12 219 0 233 1
243 19 11 21 14 248 4 275 -5 14 -37 16 -248 16 -134 0 -246 -3 -249 -7z"/>
<path d="M1566 2934 c-12 -30 -7 -269 6 -282 19 -19 471 -17 487 2 8 9 11 59
9 152 l-3 139 -246 3 c-218 2 -247 1 -253 -14z"/>
<path d="M642 2512 c-9 -7 -12 -44 -10 -153 l3 -144 245 0 245 0 3 144 c2 109
-1 146 -10 153 -7 4 -114 8 -238 8 -124 0 -231 -4 -238 -8z"/>
<path d="M1257 2513 c-4 -3 -7 -73 -7 -155 l0 -148 248 2 247 3 3 139 c2 93
-1 143 -9 152 -9 11 -58 14 -244 14 -127 0 -235 -3 -238 -7z"/>
<path d="M1872 2508 c-14 -14 -17 -265 -4 -286 7 -9 64 -12 253 -10 l244 3 3
139 c2 93 -1 143 -9 152 -16 19 -468 21 -487 2z"/>
<path d="M573 1973 c6 -131 26 -210 82 -330 49 -104 82 -156 150 -231 l48 -53
-23 -24 c-12 -13 -38 -31 -58 -41 -51 -24 -93 -8 -199 76 -103 82 -136 99
-203 107 l-50 6 0 -96 0 -96 35 -10 c20 -5 64 -36 102 -70 97 -90 157 -116
263 -116 73 0 93 4 140 28 30 15 77 47 103 70 l48 43 -48 31 c-26 17 -61 45
-77 62 l-30 31 23 24 c35 37 135 86 189 93 l48 5 -82 82 c-126 126 -191 276
-197 449 l-2 67 -134 0 -134 0 6 -107z"/>
<path d="M956 2049 c-7 -37 8 -151 30 -216 35 -105 122 -216 221 -279 162
-105 393 -113 567 -21 170 90 286 284 286 479 l0 68 -79 0 -79 0 -4 -87 c-4
-71 -10 -99 -34 -147 -56 -114 -163 -195 -284 -217 -91 -16 -165 -5 -249 37
-84 42 -142 103 -184 192 -26 55 -31 78 -31 144 l-1 78 -76 0 -76 0 -7 -31z"/>
<path d="M2180 2017 c0 -175 -98 -379 -235 -491 l-54 -43 50 -6 c66 -8 127
-37 179 -83 l42 -38 40 44 c146 165 230 366 245 582 l6 98 -136 0 -137 0 0
-63z"/>
<path d="M2582 1465 c-55 -17 -82 -35 -157 -105 -96 -90 -147 -97 -230 -34
l-35 26 -47 -39 c-27 -21 -61 -47 -77 -57 l-28 -18 43 -44 c24 -25 69 -57 99
-72 47 -23 67 -27 145 -27 109 0 154 20 257 115 38 34 80 65 95 69 28 7 28 8
31 104 l3 97 -28 -1 c-15 0 -47 -6 -71 -14z"/>
<path d="M1403 1336 c77 -73 135 -70 222 9 l40 36 -34 -7 c-46 -9 -197 -9
-241 0 l-35 7 48 -45z"/>
<path d="M1048 1264 c-16 -8 -28 -19 -28 -25 0 -25 270 -129 335 -129 15 0 10
7 -20 26 -22 15 -62 48 -90 74 -27 26 -60 53 -72 59 -30 15 -93 13 -125 -5z"/>
<path d="M1803 1242 c-26 -21 -55 -47 -63 -57 -8 -10 -35 -32 -60 -48 l-45
-29 45 5 c61 8 160 41 249 84 l75 36 -28 23 c-20 18 -39 24 -76 24 -41 0 -56
-6 -97 -38z"/>
<path d="M829 787 c-19 -12 -44 -42 -57 -67 -19 -38 -23 -57 -20 -121 3 -85
27 -132 83 -165 43 -26 135 -25 171 2 33 24 60 60 69 92 11 37 -19 26 -33 -12
-19 -51 -70 -80 -133 -74 -85 8 -129 69 -129 175 0 70 22 119 69 150 63 43
158 22 188 -41 19 -40 49 -51 37 -13 -21 65 -72 97 -157 97 -39 0 -63 -6 -88
-23z"/>
<path d="M1910 790 c0 -13 7 -20 20 -20 13 0 20 7 20 20 0 13 -7 20 -20 20
-13 0 -20 -7 -20 -20z"/>
<path d="M1768 738 c-2 -26 -8 -34 -26 -36 -28 -4 -24 -26 6 -30 21 -3 22 -8
22 -115 0 -62 4 -118 9 -125 11 -18 72 -21 78 -4 3 8 -6 12 -25 12 -39 0 -42
11 -42 130 l0 99 32 3 c46 4 49 28 4 28 -34 0 -36 2 -36 35 0 44 -18 46 -22 3z"/>
<path d="M1205 696 c-96 -43 -98 -224 -2 -269 43 -21 67 -21 113 -2 39 16 73
77 74 132 0 46 -27 109 -55 127 -35 23 -95 28 -130 12z m107 -27 c11 -6 26
-26 34 -44 45 -109 -29 -219 -120 -181 -40 17 -66 60 -66 111 0 45 22 100 47
114 24 14 79 14 105 0z"/>
<path d="M1540 703 c-8 -3 -25 -15 -37 -26 l-23 -20 0 21 c0 12 -4 22 -10 22
-6 0 -10 -53 -10 -140 0 -77 4 -140 9 -140 5 0 11 47 13 104 3 94 5 107 27
130 18 19 35 26 61 26 61 0 70 -19 70 -148 0 -93 3 -112 15 -112 12 0 15 19
15 114 0 105 -2 117 -22 141 -23 26 -78 40 -108 28z"/>
<path d="M1920 560 c0 -87 4 -140 10 -140 6 0 10 53 10 140 0 87 -4 140 -10
140 -6 0 -10 -53 -10 -140z"/>
<path d="M2000 695 c0 -3 75 -206 95 -257 4 -10 15 -18 25 -18 10 0 21 8 25
18 20 51 95 254 95 257 0 3 -6 5 -13 5 -8 0 -31 -50 -57 -120 -23 -66 -46
-120 -50 -120 -3 0 -26 54 -50 120 -26 73 -48 120 -57 120 -7 0 -13 -2 -13 -5z"/>
</g>
</svg>
